<mxfile host="app.diagrams.net" agent="Mozilla/5.0 (Windows NT 10.0; Win64; x64) AppleWebKit/537.36 (KHTML, like Gecko) Chrome/134.0.0.0 YaBrowser/25.4.0.0 Safari/537.36" version="27.1.6">
  <diagram name="Страница — 1" id="yxvooAZSalY6dUlZ2c_e">
    <mxGraphModel dx="2431" dy="1351" grid="1" gridSize="10" guides="1" tooltips="1" connect="1" arrows="1" fold="1" page="1" pageScale="1" pageWidth="827" pageHeight="1169" math="0" shadow="0">
      <root>
        <mxCell id="0" />
        <mxCell id="1" parent="0" />
        <mxCell id="HLJOkULmmG-zA_QJz1kp-19" style="edgeStyle=none;curved=1;rounded=0;orthogonalLoop=1;jettySize=auto;html=1;entryX=0.5;entryY=0;entryDx=0;entryDy=0;fontSize=12;startSize=8;endSize=8;exitX=0.5;exitY=1;exitDx=0;exitDy=0;" parent="1" source="bRl4WjssJwXENgCvOd_k-1" target="HLJOkULmmG-zA_QJz1kp-2" edge="1">
          <mxGeometry relative="1" as="geometry">
            <mxPoint x="240" y="140" as="sourcePoint" />
          </mxGeometry>
        </mxCell>
        <mxCell id="HLJOkULmmG-zA_QJz1kp-20" style="edgeStyle=none;curved=1;rounded=0;orthogonalLoop=1;jettySize=auto;html=1;entryX=0.5;entryY=0;entryDx=0;entryDy=0;fontSize=12;startSize=8;endSize=8;" parent="1" source="HLJOkULmmG-zA_QJz1kp-2" target="HLJOkULmmG-zA_QJz1kp-3" edge="1">
          <mxGeometry relative="1" as="geometry" />
        </mxCell>
        <mxCell id="HLJOkULmmG-zA_QJz1kp-2" value="Вход: X - мн-во атрибутов;&lt;div&gt;F - мн-во ФЗ&lt;/div&gt;" style="shape=parallelogram;perimeter=parallelogramPerimeter;whiteSpace=wrap;html=1;fixedSize=1;" parent="1" vertex="1">
          <mxGeometry x="120" y="155" width="240" height="35" as="geometry" />
        </mxCell>
        <mxCell id="HLJOkULmmG-zA_QJz1kp-21" style="edgeStyle=none;curved=1;rounded=0;orthogonalLoop=1;jettySize=auto;html=1;entryX=0.5;entryY=0;entryDx=0;entryDy=0;fontSize=12;startSize=8;endSize=8;" parent="1" source="HLJOkULmmG-zA_QJz1kp-3" target="HLJOkULmmG-zA_QJz1kp-4" edge="1">
          <mxGeometry relative="1" as="geometry" />
        </mxCell>
        <mxCell id="HLJOkULmmG-zA_QJz1kp-3" value="Замыкание := X&lt;div&gt;Изменение := ложь&lt;/div&gt;" style="rounded=0;whiteSpace=wrap;html=1;" parent="1" vertex="1">
          <mxGeometry x="120" y="205" width="240" height="40" as="geometry" />
        </mxCell>
        <mxCell id="HLJOkULmmG-zA_QJz1kp-22" style="edgeStyle=none;curved=1;rounded=0;orthogonalLoop=1;jettySize=auto;html=1;entryX=0.5;entryY=0;entryDx=0;entryDy=0;fontSize=12;startSize=8;endSize=8;" parent="1" source="HLJOkULmmG-zA_QJz1kp-4" target="HLJOkULmmG-zA_QJz1kp-5" edge="1">
          <mxGeometry relative="1" as="geometry" />
        </mxCell>
        <mxCell id="HLJOkULmmG-zA_QJz1kp-4" value="Пока Изменение =&amp;nbsp;&lt;div&gt;истина&lt;/div&gt;" style="shape=loopLimit;whiteSpace=wrap;html=1;" parent="1" vertex="1">
          <mxGeometry x="120" y="260" width="240" height="40" as="geometry" />
        </mxCell>
        <mxCell id="HLJOkULmmG-zA_QJz1kp-23" style="edgeStyle=none;curved=1;rounded=0;orthogonalLoop=1;jettySize=auto;html=1;entryX=0.5;entryY=0;entryDx=0;entryDy=0;fontSize=12;startSize=8;endSize=8;" parent="1" source="HLJOkULmmG-zA_QJz1kp-5" target="HLJOkULmmG-zA_QJz1kp-6" edge="1">
          <mxGeometry relative="1" as="geometry" />
        </mxCell>
        <mxCell id="HLJOkULmmG-zA_QJz1kp-5" value="&lt;div&gt;Изменение := ложь&lt;/div&gt;" style="rounded=0;whiteSpace=wrap;html=1;" parent="1" vertex="1">
          <mxGeometry x="120" y="316" width="240" height="30" as="geometry" />
        </mxCell>
        <mxCell id="HLJOkULmmG-zA_QJz1kp-24" style="edgeStyle=none;curved=1;rounded=0;orthogonalLoop=1;jettySize=auto;html=1;entryX=0.5;entryY=0;entryDx=0;entryDy=0;fontSize=12;startSize=8;endSize=8;" parent="1" source="HLJOkULmmG-zA_QJz1kp-6" target="HLJOkULmmG-zA_QJz1kp-7" edge="1">
          <mxGeometry relative="1" as="geometry" />
        </mxCell>
        <mxCell id="HLJOkULmmG-zA_QJz1kp-6" value="Для каждой ф_з ∈ F" style="shape=loopLimit;whiteSpace=wrap;html=1;" parent="1" vertex="1">
          <mxGeometry x="120" y="361" width="240" height="40" as="geometry" />
        </mxCell>
        <mxCell id="HLJOkULmmG-zA_QJz1kp-9" style="edgeStyle=orthogonalEdgeStyle;rounded=0;orthogonalLoop=1;jettySize=auto;html=1;fontSize=12;startSize=8;endSize=8;entryX=0.5;entryY=0;entryDx=0;entryDy=0;exitX=1;exitY=0.5;exitDx=0;exitDy=0;" parent="1" source="HLJOkULmmG-zA_QJz1kp-7" target="HLJOkULmmG-zA_QJz1kp-10" edge="1">
          <mxGeometry relative="1" as="geometry">
            <mxPoint x="400" y="630" as="targetPoint" />
            <Array as="points">
              <mxPoint x="370" y="462" />
              <mxPoint x="370" y="500" />
              <mxPoint x="240" y="500" />
            </Array>
          </mxGeometry>
        </mxCell>
        <mxCell id="rCXxmUfS-9hTCnVj1lQe-1" value="Да" style="edgeLabel;html=1;align=center;verticalAlign=middle;resizable=0;points=[];" parent="HLJOkULmmG-zA_QJz1kp-9" vertex="1" connectable="0">
          <mxGeometry x="-0.52" relative="1" as="geometry">
            <mxPoint x="-7" y="-48" as="offset" />
          </mxGeometry>
        </mxCell>
        <mxCell id="HLJOkULmmG-zA_QJz1kp-25" style="edgeStyle=orthogonalEdgeStyle;rounded=0;orthogonalLoop=1;jettySize=auto;html=1;fontSize=12;startSize=8;endSize=8;exitX=0;exitY=0.5;exitDx=0;exitDy=0;" parent="1" source="HLJOkULmmG-zA_QJz1kp-7" edge="1">
          <mxGeometry relative="1" as="geometry">
            <mxPoint x="240" y="410" as="targetPoint" />
            <Array as="points">
              <mxPoint x="110" y="462" />
              <mxPoint x="110" y="410" />
            </Array>
          </mxGeometry>
        </mxCell>
        <mxCell id="HLJOkULmmG-zA_QJz1kp-7" value="fd.детерминант ⊆ Замыкание?" style="rhombus;whiteSpace=wrap;html=1;" parent="1" vertex="1">
          <mxGeometry x="120" y="433" width="240" height="57" as="geometry" />
        </mxCell>
        <mxCell id="HLJOkULmmG-zA_QJz1kp-18" style="edgeStyle=none;curved=1;rounded=0;orthogonalLoop=1;jettySize=auto;html=1;exitX=0.5;exitY=1;exitDx=0;exitDy=0;entryX=0.5;entryY=0;entryDx=0;entryDy=0;fontSize=12;startSize=8;endSize=8;" parent="1" target="HLJOkULmmG-zA_QJz1kp-11" edge="1">
          <mxGeometry relative="1" as="geometry">
            <mxPoint x="240" y="538" as="sourcePoint" />
          </mxGeometry>
        </mxCell>
        <mxCell id="HLJOkULmmG-zA_QJz1kp-10" value="новые_атр = ф_з.зависимая - Замыкание&amp;nbsp;" style="rounded=0;whiteSpace=wrap;html=1;" parent="1" vertex="1">
          <mxGeometry x="120" y="515" width="240" height="35" as="geometry" />
        </mxCell>
        <mxCell id="HLJOkULmmG-zA_QJz1kp-12" style="edgeStyle=orthogonalEdgeStyle;rounded=0;orthogonalLoop=1;jettySize=auto;html=1;fontSize=12;startSize=8;endSize=8;entryX=0.5;entryY=0;entryDx=0;entryDy=0;exitX=1;exitY=0.5;exitDx=0;exitDy=0;" parent="1" source="HLJOkULmmG-zA_QJz1kp-11" target="HLJOkULmmG-zA_QJz1kp-13" edge="1">
          <mxGeometry relative="1" as="geometry">
            <mxPoint x="580" y="788" as="targetPoint" />
            <Array as="points">
              <mxPoint x="370" y="595" />
              <mxPoint x="370" y="630" />
              <mxPoint x="240" y="630" />
            </Array>
          </mxGeometry>
        </mxCell>
        <mxCell id="bRl4WjssJwXENgCvOd_k-2" style="edgeStyle=orthogonalEdgeStyle;rounded=0;orthogonalLoop=1;jettySize=auto;html=1;exitX=0;exitY=0.5;exitDx=0;exitDy=0;" edge="1" parent="1" source="HLJOkULmmG-zA_QJz1kp-11">
          <mxGeometry relative="1" as="geometry">
            <mxPoint x="110" y="420" as="targetPoint" />
            <Array as="points">
              <mxPoint x="90" y="596" />
              <mxPoint x="90" y="420" />
            </Array>
          </mxGeometry>
        </mxCell>
        <mxCell id="HLJOkULmmG-zA_QJz1kp-11" value="новые_атр != 0 ?" style="rhombus;whiteSpace=wrap;html=1;" parent="1" vertex="1">
          <mxGeometry x="120" y="568" width="240" height="55" as="geometry" />
        </mxCell>
        <mxCell id="HLJOkULmmG-zA_QJz1kp-26" style="edgeStyle=none;curved=1;rounded=0;orthogonalLoop=1;jettySize=auto;html=1;exitX=0.5;exitY=1;exitDx=0;exitDy=0;entryX=0.5;entryY=0;entryDx=0;entryDy=0;fontSize=12;startSize=8;endSize=8;" parent="1" source="HLJOkULmmG-zA_QJz1kp-13" target="HLJOkULmmG-zA_QJz1kp-14" edge="1">
          <mxGeometry relative="1" as="geometry" />
        </mxCell>
        <mxCell id="HLJOkULmmG-zA_QJz1kp-13" value="Замыкание = Замыкание&amp;nbsp;∪ новые_атр&amp;nbsp;" style="rounded=0;whiteSpace=wrap;html=1;" parent="1" vertex="1">
          <mxGeometry x="120" y="646" width="240" height="25" as="geometry" />
        </mxCell>
        <mxCell id="HLJOkULmmG-zA_QJz1kp-36" style="edgeStyle=none;curved=1;rounded=0;orthogonalLoop=1;jettySize=auto;html=1;entryX=0.5;entryY=1;entryDx=0;entryDy=0;fontSize=12;startSize=8;endSize=8;" parent="1" source="HLJOkULmmG-zA_QJz1kp-14" target="bRl4WjssJwXENgCvOd_k-3" edge="1">
          <mxGeometry relative="1" as="geometry">
            <mxPoint x="241" y="741" as="targetPoint" />
          </mxGeometry>
        </mxCell>
        <mxCell id="HLJOkULmmG-zA_QJz1kp-14" value="&lt;div&gt;Изменение := истина&lt;/div&gt;" style="rounded=0;whiteSpace=wrap;html=1;" parent="1" vertex="1">
          <mxGeometry x="120" y="691" width="240" height="30" as="geometry" />
        </mxCell>
        <mxCell id="HLJOkULmmG-zA_QJz1kp-31" value="" style="group" parent="1" vertex="1" connectable="0">
          <mxGeometry x="120" y="781" width="240" height="36" as="geometry" />
        </mxCell>
        <mxCell id="HLJOkULmmG-zA_QJz1kp-32" value="" style="shape=loopLimit;whiteSpace=wrap;html=1;rotation=-180;" parent="HLJOkULmmG-zA_QJz1kp-31" vertex="1">
          <mxGeometry y="6" width="240" height="30" as="geometry" />
        </mxCell>
        <mxCell id="HLJOkULmmG-zA_QJz1kp-33" value="&lt;font style=&quot;font-size: 12px;&quot;&gt;Конец Пока&lt;/font&gt;" style="text;strokeColor=none;fillColor=none;html=1;align=center;verticalAlign=middle;whiteSpace=wrap;rounded=0;fontSize=16;" parent="HLJOkULmmG-zA_QJz1kp-31" vertex="1">
          <mxGeometry x="36.774193548387096" y="6" width="166.45161290322582" height="24" as="geometry" />
        </mxCell>
        <mxCell id="HLJOkULmmG-zA_QJz1kp-40" style="edgeStyle=none;curved=1;rounded=0;orthogonalLoop=1;jettySize=auto;html=1;fontSize=12;startSize=8;endSize=8;entryX=0.5;entryY=0;entryDx=0;entryDy=0;" parent="1" source="HLJOkULmmG-zA_QJz1kp-37" target="bRl4WjssJwXENgCvOd_k-8" edge="1">
          <mxGeometry relative="1" as="geometry">
            <mxPoint x="240" y="881" as="targetPoint" />
          </mxGeometry>
        </mxCell>
        <mxCell id="HLJOkULmmG-zA_QJz1kp-37" value="Выход: Замыкание" style="shape=parallelogram;perimeter=parallelogramPerimeter;whiteSpace=wrap;html=1;fixedSize=1;" parent="1" vertex="1">
          <mxGeometry x="120" y="833" width="240" height="25" as="geometry" />
        </mxCell>
        <mxCell id="HLJOkULmmG-zA_QJz1kp-38" style="edgeStyle=none;curved=1;rounded=0;orthogonalLoop=1;jettySize=auto;html=1;entryX=0.5;entryY=0;entryDx=0;entryDy=0;fontSize=12;startSize=8;endSize=8;exitX=0.5;exitY=0;exitDx=0;exitDy=0;" parent="1" source="HLJOkULmmG-zA_QJz1kp-32" target="HLJOkULmmG-zA_QJz1kp-37" edge="1">
          <mxGeometry relative="1" as="geometry" />
        </mxCell>
        <mxCell id="rCXxmUfS-9hTCnVj1lQe-3" value="Нет" style="edgeLabel;html=1;align=center;verticalAlign=middle;resizable=0;points=[];" parent="1" vertex="1" connectable="0">
          <mxGeometry x="131" y="449" as="geometry">
            <mxPoint x="-10" y="2" as="offset" />
          </mxGeometry>
        </mxCell>
        <mxCell id="rCXxmUfS-9hTCnVj1lQe-4" value="Нет" style="edgeLabel;html=1;align=center;verticalAlign=middle;resizable=0;points=[];" parent="1" vertex="1" connectable="0">
          <mxGeometry x="132" y="582" as="geometry">
            <mxPoint x="-10" y="2" as="offset" />
          </mxGeometry>
        </mxCell>
        <mxCell id="rCXxmUfS-9hTCnVj1lQe-5" value="Да" style="edgeLabel;html=1;align=center;verticalAlign=middle;resizable=0;points=[];" parent="1" vertex="1" connectable="0">
          <mxGeometry x="370" y="585" as="geometry">
            <mxPoint x="-6" y="-1" as="offset" />
          </mxGeometry>
        </mxCell>
        <mxCell id="bRl4WjssJwXENgCvOd_k-1" value="Начало" style="rounded=1;whiteSpace=wrap;html=1;arcSize=100;absoluteArcSize=1;" vertex="1" parent="1">
          <mxGeometry x="120" y="120" width="240" height="20" as="geometry" />
        </mxCell>
        <mxCell id="bRl4WjssJwXENgCvOd_k-5" value="" style="group" vertex="1" connectable="0" parent="1">
          <mxGeometry x="120" y="739" width="240" height="30" as="geometry" />
        </mxCell>
        <mxCell id="bRl4WjssJwXENgCvOd_k-3" value="" style="shape=loopLimit;whiteSpace=wrap;html=1;rotation=-180;" vertex="1" parent="bRl4WjssJwXENgCvOd_k-5">
          <mxGeometry width="240" height="30" as="geometry" />
        </mxCell>
        <mxCell id="HLJOkULmmG-zA_QJz1kp-17" value="&lt;font style=&quot;font-size: 12px;&quot;&gt;Конец цикла по ф_з&amp;nbsp;∈ F&lt;/font&gt;" style="text;strokeColor=none;fillColor=none;html=1;align=center;verticalAlign=middle;whiteSpace=wrap;rounded=0;fontSize=16;" parent="bRl4WjssJwXENgCvOd_k-5" vertex="1">
          <mxGeometry x="36" y="4" width="168" height="18" as="geometry" />
        </mxCell>
        <mxCell id="bRl4WjssJwXENgCvOd_k-7" style="edgeStyle=orthogonalEdgeStyle;rounded=0;orthogonalLoop=1;jettySize=auto;html=1;entryX=0.5;entryY=0;entryDx=0;entryDy=0;exitX=0.5;exitY=0;exitDx=0;exitDy=0;" edge="1" parent="1" source="bRl4WjssJwXENgCvOd_k-3" target="HLJOkULmmG-zA_QJz1kp-33">
          <mxGeometry relative="1" as="geometry">
            <mxPoint x="240" y="771" as="sourcePoint" />
          </mxGeometry>
        </mxCell>
        <mxCell id="bRl4WjssJwXENgCvOd_k-8" value="Конец" style="rounded=1;whiteSpace=wrap;html=1;arcSize=100;absoluteArcSize=1;" vertex="1" parent="1">
          <mxGeometry x="120" y="874" width="240" height="20" as="geometry" />
        </mxCell>
      </root>
    </mxGraphModel>
  </diagram>
</mxfile>
